HIERARCHY
ROOT Hips
{
	OFFSET 0.000000 0.000000 0.000000
	CHANNELS 6 Xposition Yposition Zposition Yrotation Xrotation Zrotation
	JOINT Chest
	{
		OFFSET 0.000000 -0.009281 11.569106
		CHANNELS 3 Yrotation Xrotation Zrotation
		JOINT Chest2
		{
			OFFSET -0.000000 0.016865 9.269641
			CHANNELS 3 Yrotation Xrotation Zrotation
			JOINT Chest3
			{
				OFFSET -0.000000 0.000001 8.374491
				CHANNELS 3 Yrotation Xrotation Zrotation
				JOINT Chest4
				{
					OFFSET -0.000000 0.000001 8.374493
					CHANNELS 3 Yrotation Xrotation Zrotation
					JOINT Neck
					{
						OFFSET -0.000000 0.000002 12.152554
						CHANNELS 3 Yrotation Xrotation Zrotation
						JOINT Head
						{
							OFFSET -0.000000 0.040101 7.802319
							CHANNELS 3 Yrotation Xrotation Zrotation
							End Site
							{
								OFFSET -0.000000 0.020947 14.853096
							}
						}
					}
					JOINT RightCollar
					{
						OFFSET 2.894404 0.000001 6.791374
						CHANNELS 3 Yrotation Xrotation Zrotation
						JOINT RightShoulder
						{
							OFFSET 13.574684 0.000001 0.000000
							CHANNELS 3 Yrotation Xrotation Zrotation
							JOINT RightElbow
							{
								OFFSET 23.923903 0.000002 0.000000
								CHANNELS 3 Yrotation Xrotation Zrotation
								JOINT RightWrist
								{
									OFFSET 19.846718 0.012767 0.000000
									CHANNELS 3 Yrotation Xrotation Zrotation
									End Site
									{
										OFFSET 14.973145 0.000001 0.000000
									}
								}
							}
						}
					}
					JOINT LeftCollar
					{
						OFFSET -2.894404 0.000001 6.791374
						CHANNELS 3 Yrotation Xrotation Zrotation
						JOINT LeftShoulder
						{
							OFFSET -13.574684 -0.000001 0.000000
							CHANNELS 3 Yrotation Xrotation Zrotation
							JOINT LeftElbow
							{
								OFFSET -23.923903 -0.000002 0.000000
								CHANNELS 3 Yrotation Xrotation Zrotation
								JOINT LeftWrist
								{
									OFFSET -19.846718 0.012763 0.000000
									CHANNELS 3 Yrotation Xrotation Zrotation
									End Site
									{
										OFFSET -14.973145 -0.000001 0.000000
									}
								}
							}
						}
					}
				}
			}
		}
	}
	JOINT RightHip
	{
		OFFSET 9.469263 0.004643 0.045487
		CHANNELS 3 Yrotation Xrotation Zrotation
		JOINT RightKnee
		{
			OFFSET 0.000000 0.002661 -40.478676
			CHANNELS 3 Yrotation Xrotation Zrotation
			JOINT RightAnkle
			{
				OFFSET 0.000000 0.049106 -35.224068
				CHANNELS 3 Yrotation Xrotation Zrotation
				JOINT RightToe
				{
					OFFSET -0.000001 12.539529 -6.151390
					CHANNELS 3 Yrotation Xrotation Zrotation
					End Site
					{
						OFFSET -0.000001 5.044994 -1.291870
					}
				}
			}
		}
	}
	JOINT LeftHip
	{
		OFFSET -9.469263 0.004641 0.045487
		CHANNELS 3 Yrotation Xrotation Zrotation
		JOINT LeftKnee
		{
			OFFSET 0.000000 0.002661 -40.478676
			CHANNELS 3 Yrotation Xrotation Zrotation
			JOINT LeftAnkle
			{
				OFFSET 0.000000 0.049106 -35.224068
				CHANNELS 3 Yrotation Xrotation Zrotation
				JOINT LeftToe
				{
					OFFSET -0.000001 12.539529 -6.151390
					CHANNELS 3 Yrotation Xrotation Zrotation
					End Site
					{
						OFFSET -0.000001 5.044994 -1.291870
					}
				}
			}
		}
	}
}
MOTION
Frames: 8
Frame Time: 0.016667
11.585941 6.941561 83.058640 -6.005132 -3.559871 -112.954376 0.294465 -3.119951 0.312833 0.142014 -1.384771 0.126778 0.142014 -1.384771 0.126779 0.106792 -1.038549 0.095403 1.373637 -18.113663 -1.598804 1.995205 2.553710 -2.484510 10.030084 0.611590 0.118443 70.337821 8.144777 3.017821 3.081346 -17.187478 1.650601 13.187285 -8.467866 -4.659226 -11.379665 0.555364 -1.563541 -75.604976 2.624637 -1.910514 -0.656924 -7.100453 -2.471467 -1.772192 -13.620927 1.545304 -0.035766 -9.340314 0.402046 -0.077239 -2.539668 0.156133 0.604982 4.646653 0.508679 -0.021530 0.012204 0.001718 0.535233 -10.386163 -1.322583 -0.584216 -1.152976 1.940498 0.654563 4.692660 0.853377 0.043853 -0.028442 -0.000254 
11.580908 6.965351 83.060669 -6.015915 -3.577427 -113.008021 0.291576 -3.118936 0.361604 0.141268 -1.384460 0.149265 0.141269 -1.384459 0.149265 0.106285 -1.038310 0.112263 1.371956 -18.148473 -1.610298 1.988623 2.489076 -2.506367 9.957740 0.530131 0.095493 69.418477 8.145535 3.221222 3.484771 -17.522649 2.025619 13.941741 -8.572684 -5.210752 -11.379155 0.531223 -1.717422 -75.215457 2.838974 -1.985439 -0.719308 -6.783157 -2.527433 -2.886765 -13.818999 2.377748 -0.042580 -9.360890 0.378236 -0.094591 -2.494818 0.202690 0.648711 4.609910 0.537478 -0.030849 0.008991 0.001430 0.519643 -10.406930 -1.316869 -0.578248 -1.137350 1.981077 0.657036 4.676723 0.867184 0.042461 -0.026608 0.000110 
11.574485 6.988344 83.063164 -6.033157 -3.593994 -113.051249 0.298702 -3.117607 0.398063 0.144406 -1.383807 0.167024 0.144407 -1.383806 0.167022 0.108678 -1.037816 0.125588 1.353025 -18.192129 -1.609101 1.954635 2.407855 -2.510636 9.865449 0.432271 0.092109 68.435162 8.123027 3.429839 3.873748 -17.760833 2.457584 14.606138 -8.638668 -5.655574 -11.450591 0.569591 -1.917897 -74.704388 3.094341 -1.971238 -0.779255 -6.496839 -2.604445 -4.019757 -14.007599 3.202525 -0.050972 -9.389509 0.353866 -0.111244 -2.445200 0.244241 0.691269 4.570574 0.565914 -0.038018 0.006633 0.001752 0.507302 -10.432123 -1.317398 -0.578451 -1.119237 2.018130 0.661563 4.656026 0.870625 0.040919 -0.023662 0.000638 
11.566732 7.011022 83.065239 -6.049594 -3.608543 -113.084013 0.303020 -3.125751 0.422415 0.146474 -1.387107 0.179091 0.146474 -1.387107 0.179093 0.110256 -1.040287 0.134644 1.323230 -18.239460 -1.589241 1.906899 2.319665 -2.484174 9.765749 0.364846 0.062227 67.473082 8.034696 3.689645 4.180818 -17.861245 2.890230 15.211364 -8.689134 -6.027858 -11.480774 0.583618 -2.086919 -74.170739 3.405548 -1.997008 -0.851032 -6.272852 -2.712192 -4.997420 -14.168724 3.940243 -0.057907 -9.415936 0.328891 -0.127274 -2.399031 0.262006 0.734287 4.534837 0.604553 -0.044391 0.003658 0.001511 0.494655 -10.450922 -1.311565 -0.576627 -1.106266 2.041688 0.664146 4.636547 0.871147 0.040154 -0.021959 0.000972 
11.555385 7.035316 83.066994 -6.069002 -3.621295 -113.103240 0.308668 -3.133616 0.430611 0.149276 -1.390593 0.183287 0.149275 -1.390593 0.183288 0.112368 -1.042900 0.137800 1.282175 -18.296817 -1.553230 1.843905 2.212749 -2.431761 9.673530 0.329420 0.026147 66.534690 7.929903 3.948607 4.369358 -17.899691 3.335115 15.806038 -8.731320 -6.366510 -11.471404 0.527530 -2.217190 -73.655223 3.790423 -2.080231 -0.902386 -6.114081 -2.863543 -5.902838 -14.324624 4.612094 -0.069384 -9.437359 0.307901 -0.135877 -2.363978 0.263510 0.773963 4.503124 0.644313 -0.049208 0.000949 0.000544 0.482864 -10.467695 -1.306885 -0.577114 -1.092080 2.051993 0.666623 4.612126 0.878807 0.040862 -0.020928 0.001296 
11.539682 7.061720 83.069069 -6.090708 -3.634763 -113.112085 0.309509 -3.152496 0.430930 0.149840 -1.399065 0.183481 0.149840 -1.399064 0.183482 0.112794 -1.049254 0.137949 1.242186 -18.357901 -1.507538 1.786084 2.098912 -2.361190 9.593657 0.325007 -0.010980 65.591837 7.886401 4.222637 4.506285 -17.932096 3.765871 16.403980 -8.759793 -6.684921 -11.443063 0.500106 -2.335660 -73.111424 4.211351 -2.151679 -0.938489 -5.959953 -3.062359 -6.841002 -14.400617 5.348676 -0.081107 -9.452718 0.302131 -0.139227 -2.341818 0.257245 0.806099 4.473680 0.667928 -0.050295 0.000336 -0.000581 0.475223 -10.482923 -1.300536 -0.581797 -1.076082 2.059073 0.667818 4.583401 0.876129 0.043608 -0.021419 0.002101 
11.518674 7.088666 83.071358 -6.112456 -3.648971 -113.117017 0.314255 -3.176946 0.420700 0.151532 -1.409950 0.178690 0.151531 -1.409950 0.178688 0.114055 -1.057419 0.134362 1.198799 -18.421022 -1.452927 1.724937 1.981267 -2.275334 9.497303 0.350180 -0.029840 64.620017 7.974646 4.489119 4.665768 -17.989019 4.158346 16.957859 -8.814467 -6.971851 -11.400994 0.483210 -2.411469 -72.550194 4.657617 -2.247482 -0.987291 -5.790055 -3.253324 -7.752093 -14.496183 6.070585 -0.091642 -9.460195 0.315527 -0.140029 -2.328826 0.242948 0.832440 4.444099 0.685449 -0.048693 0.000485 -0.000713 0.470146 -10.493943 -1.287277 -0.586313 -1.060580 2.065335 0.666408 4.552124 0.862326 0.046472 -0.023418 0.002879 
11.493581 7.115560 83.074364 -6.140796 -3.665011 -113.115343 0.306848 -3.215407 0.421741 0.147809 -1.426731 0.179217 0.147809 -1.426731 0.179219 0.111269 -1.070006 0.134753 1.173684 -18.484729 -1.412144 1.692779 1.862715 -2.208888 9.434856 0.405476 -0.037924 63.604006 8.147135 4.753795 4.849096 -18.028126 4.502342 17.419231 -8.860124 -7.190054 -11.323598 0.481751 -2.502549 -71.946201 5.069156 -2.377608 -1.065065 -5.546347 -3.417056 -8.555924 -14.642809 6.746384 -0.099653 -9.469671 0.321617 -0.140296 -2.321924 0.231190 0.851737 4.415348 0.697490 -0.044229 0.000701 -0.000651 0.466679 -10.507823 -1.267574 -0.590229 -1.045743 2.068334 0.662099 4.517118 0.839601 0.049236 -0.024899 0.003915 
